<svg width="56" height="56" viewBox="0 0 56 56" fill="none" xmlns="http://www.w3.org/2000/svg">
<path d="M40.0229 35.2201H37.4934L36.5969 34.3556C39.7347 30.7055 41.6238 25.9668 41.6238 20.8119C41.6238 9.31732 32.3065 0 20.8119 0C9.31732 0 0 9.31732 0 20.8119C0 32.3065 9.31732 41.6238 20.8119 41.6238C25.9668 41.6238 30.7055 39.7347 34.3556 36.5969L35.2201 37.4934V40.0229L51.2293 56L56 51.2293L40.0229 35.2201ZM20.8119 35.2201C12.8393 35.2201 6.40366 28.7844 6.40366 20.8119C6.40366 12.8393 12.8393 6.40366 20.8119 6.40366C28.7844 6.40366 35.2201 12.8393 35.2201 20.8119C35.2201 28.7844 28.7844 35.2201 20.8119 35.2201Z" fill="white"/>
</svg>
